<?xml version="1.0" standalone="no"?><!DOCTYPE svg PUBLIC "-//W3C//DTD SVG 1.1//EN" "http://www.w3.org/Graphics/SVG/1.1/DTD/svg11.dtd"><svg t="1541140231690" class="icon" style="" viewBox="0 0 1024 1024" version="1.1" xmlns="http://www.w3.org/2000/svg" p-id="1349" xmlns:xlink="http://www.w3.org/1999/xlink" width="59" height="59"><defs><style type="text/css"></style></defs><path d="M384 117.76h240.64v762.88H384z" fill="#FFFFFF" p-id="1350"></path><path d="M512 1024C229.376 1024 0 794.624 0 512S229.376 0 512 0s512 229.376 512 512-229.376 512-512 512z m48.128-783.872c0-26.624-21.504-48.128-48.128-48.128s-48.128 21.504-48.128 48.128v352.256c0 26.624 21.504 48.128 48.128 48.128s48.128-21.504 48.128-48.128V240.128z m-48.128 496.128c-26.624 0-48.128 21.504-48.128 48.128s21.504 48.128 48.128 48.128 48.128-21.504 48.128-48.128-21.504-48.128-48.128-48.128z" fill="#EC5650" p-id="1351"></path></svg>