<?xml version="1.0" standalone="no"?><!DOCTYPE svg PUBLIC "-//W3C//DTD SVG 1.1//EN" "http://www.w3.org/Graphics/SVG/1.1/DTD/svg11.dtd"><svg t="1541140218318" class="icon" style="" viewBox="0 0 1024 1024" version="1.1" xmlns="http://www.w3.org/2000/svg" p-id="1208" xmlns:xlink="http://www.w3.org/1999/xlink" width="59" height="59"><defs><style type="text/css"></style></defs><path d="M166.653465 510.732673a354.851485 354.851485 0 0 0 709.702971 0 354.851485 354.851485 0 0 0-709.702971 0z" fill="#FFFFFF" p-id="1209"></path><path d="M145.108911 521.50495a365.623762 365.623762 0 1 0 731.247525 0 365.623762 365.623762 0 0 0-731.247525 0z" fill="#FFFFFF" p-id="1210"></path><path d="M512 0a512 512 0 1 0 512 512A512.633663 512.633663 0 0 0 512 0z m287.683168 367.524752l-344.712871 348.514852h-0.633663v0.633663a49.679208 49.679208 0 0 1-9.504951 6.336634c-1.90099 0.633663-3.168317 2.534653-4.435643 3.168317a47.017822 47.017822 0 0 1-15.841585 3.168317 50.693069 50.693069 0 0 1-16.475247-3.168317 11.342574 11.342574 0 0 1-4.435644-3.168317 41.378218 41.378218 0 0 1-9.50495-6.336634v-0.633663h-0.633664L223.683168 541.782178A43.025743 43.025743 0 0 1 285.148515 481.584158l139.40594 143.207921 314.29703-317.465346a43.025743 43.025743 0 0 1 60.831683-0.633664 43.59604 43.59604 0 0 1 0 60.831683z" fill="#33B052" p-id="1211"></path></svg>